<mxfile host="app.diagrams.net" modified="2023-10-17T15:38:30.811Z" agent="Mozilla/5.0 (Windows NT 10.0; Win64; x64) AppleWebKit/537.36 (KHTML, like Gecko) Chrome/118.0.0.0 Safari/537.36" etag="kFE0GOCZFAiR0d2zK3BU" version="21.8.2" type="device">
  <diagram name="PÃ¡gina-1" id="GnB4X76jDZgyUfJqaZdD">
    <mxGraphModel dx="792" dy="1132" grid="1" gridSize="10" guides="1" tooltips="1" connect="1" arrows="1" fold="1" page="1" pageScale="1" pageWidth="827" pageHeight="1169" math="0" shadow="0">
      <root>
        <mxCell id="0" />
        <mxCell id="1" parent="0" />
        <mxCell id="iMe6a8kKa237wIf4Cnhy-1" value="" style="shape=table;startSize=0;container=1;collapsible=0;childLayout=tableLayout;fillColor=#ffe6cc;strokeColor=#d79b00;" vertex="1" parent="1">
          <mxGeometry x="240" y="320" width="360" height="360" as="geometry" />
        </mxCell>
        <mxCell id="iMe6a8kKa237wIf4Cnhy-2" value="" style="shape=tableRow;horizontal=0;startSize=0;swimlaneHead=0;swimlaneBody=0;strokeColor=inherit;top=0;left=0;bottom=0;right=0;collapsible=0;dropTarget=0;fillColor=none;points=[[0,0.5],[1,0.5]];portConstraint=eastwest;" vertex="1" parent="iMe6a8kKa237wIf4Cnhy-1">
          <mxGeometry width="360" height="72" as="geometry" />
        </mxCell>
        <mxCell id="iMe6a8kKa237wIf4Cnhy-3" value="o1" style="shape=partialRectangle;html=1;whiteSpace=wrap;connectable=0;strokeColor=inherit;overflow=hidden;fillColor=none;top=0;left=0;bottom=0;right=0;pointerEvents=1;" vertex="1" parent="iMe6a8kKa237wIf4Cnhy-2">
          <mxGeometry width="72" height="72" as="geometry">
            <mxRectangle width="72" height="72" as="alternateBounds" />
          </mxGeometry>
        </mxCell>
        <mxCell id="iMe6a8kKa237wIf4Cnhy-4" value="o2" style="shape=partialRectangle;html=1;whiteSpace=wrap;connectable=0;strokeColor=inherit;overflow=hidden;fillColor=none;top=0;left=0;bottom=0;right=0;pointerEvents=1;" vertex="1" parent="iMe6a8kKa237wIf4Cnhy-2">
          <mxGeometry x="72" width="72" height="72" as="geometry">
            <mxRectangle width="72" height="72" as="alternateBounds" />
          </mxGeometry>
        </mxCell>
        <mxCell id="iMe6a8kKa237wIf4Cnhy-5" value="o3" style="shape=partialRectangle;html=1;whiteSpace=wrap;connectable=0;strokeColor=inherit;overflow=hidden;fillColor=none;top=0;left=0;bottom=0;right=0;pointerEvents=1;" vertex="1" parent="iMe6a8kKa237wIf4Cnhy-2">
          <mxGeometry x="144" width="72" height="72" as="geometry">
            <mxRectangle width="72" height="72" as="alternateBounds" />
          </mxGeometry>
        </mxCell>
        <mxCell id="iMe6a8kKa237wIf4Cnhy-6" value="o4" style="shape=partialRectangle;html=1;whiteSpace=wrap;connectable=0;strokeColor=inherit;overflow=hidden;fillColor=none;top=0;left=0;bottom=0;right=0;pointerEvents=1;" vertex="1" parent="iMe6a8kKa237wIf4Cnhy-2">
          <mxGeometry x="216" width="72" height="72" as="geometry">
            <mxRectangle width="72" height="72" as="alternateBounds" />
          </mxGeometry>
        </mxCell>
        <mxCell id="iMe6a8kKa237wIf4Cnhy-7" value="o5" style="shape=partialRectangle;html=1;whiteSpace=wrap;connectable=0;strokeColor=inherit;overflow=hidden;fillColor=none;top=0;left=0;bottom=0;right=0;pointerEvents=1;" vertex="1" parent="iMe6a8kKa237wIf4Cnhy-2">
          <mxGeometry x="288" width="72" height="72" as="geometry">
            <mxRectangle width="72" height="72" as="alternateBounds" />
          </mxGeometry>
        </mxCell>
        <mxCell id="iMe6a8kKa237wIf4Cnhy-8" value="" style="shape=tableRow;horizontal=0;startSize=0;swimlaneHead=0;swimlaneBody=0;strokeColor=inherit;top=0;left=0;bottom=0;right=0;collapsible=0;dropTarget=0;fillColor=none;points=[[0,0.5],[1,0.5]];portConstraint=eastwest;" vertex="1" parent="iMe6a8kKa237wIf4Cnhy-1">
          <mxGeometry y="72" width="360" height="72" as="geometry" />
        </mxCell>
        <mxCell id="iMe6a8kKa237wIf4Cnhy-9" value="o6" style="shape=partialRectangle;html=1;whiteSpace=wrap;connectable=0;strokeColor=inherit;overflow=hidden;fillColor=none;top=0;left=0;bottom=0;right=0;pointerEvents=1;" vertex="1" parent="iMe6a8kKa237wIf4Cnhy-8">
          <mxGeometry width="72" height="72" as="geometry">
            <mxRectangle width="72" height="72" as="alternateBounds" />
          </mxGeometry>
        </mxCell>
        <mxCell id="iMe6a8kKa237wIf4Cnhy-10" value="o7" style="shape=partialRectangle;html=1;whiteSpace=wrap;connectable=0;strokeColor=inherit;overflow=hidden;fillColor=none;top=0;left=0;bottom=0;right=0;pointerEvents=1;" vertex="1" parent="iMe6a8kKa237wIf4Cnhy-8">
          <mxGeometry x="72" width="72" height="72" as="geometry">
            <mxRectangle width="72" height="72" as="alternateBounds" />
          </mxGeometry>
        </mxCell>
        <mxCell id="iMe6a8kKa237wIf4Cnhy-11" value="o8" style="shape=partialRectangle;html=1;whiteSpace=wrap;connectable=0;strokeColor=inherit;overflow=hidden;fillColor=none;top=0;left=0;bottom=0;right=0;pointerEvents=1;" vertex="1" parent="iMe6a8kKa237wIf4Cnhy-8">
          <mxGeometry x="144" width="72" height="72" as="geometry">
            <mxRectangle width="72" height="72" as="alternateBounds" />
          </mxGeometry>
        </mxCell>
        <mxCell id="iMe6a8kKa237wIf4Cnhy-12" value="o9" style="shape=partialRectangle;html=1;whiteSpace=wrap;connectable=0;strokeColor=inherit;overflow=hidden;fillColor=none;top=0;left=0;bottom=0;right=0;pointerEvents=1;" vertex="1" parent="iMe6a8kKa237wIf4Cnhy-8">
          <mxGeometry x="216" width="72" height="72" as="geometry">
            <mxRectangle width="72" height="72" as="alternateBounds" />
          </mxGeometry>
        </mxCell>
        <mxCell id="iMe6a8kKa237wIf4Cnhy-13" value="o10" style="shape=partialRectangle;html=1;whiteSpace=wrap;connectable=0;strokeColor=inherit;overflow=hidden;fillColor=none;top=0;left=0;bottom=0;right=0;pointerEvents=1;" vertex="1" parent="iMe6a8kKa237wIf4Cnhy-8">
          <mxGeometry x="288" width="72" height="72" as="geometry">
            <mxRectangle width="72" height="72" as="alternateBounds" />
          </mxGeometry>
        </mxCell>
        <mxCell id="iMe6a8kKa237wIf4Cnhy-14" value="" style="shape=tableRow;horizontal=0;startSize=0;swimlaneHead=0;swimlaneBody=0;strokeColor=inherit;top=0;left=0;bottom=0;right=0;collapsible=0;dropTarget=0;fillColor=none;points=[[0,0.5],[1,0.5]];portConstraint=eastwest;" vertex="1" parent="iMe6a8kKa237wIf4Cnhy-1">
          <mxGeometry y="144" width="360" height="72" as="geometry" />
        </mxCell>
        <mxCell id="iMe6a8kKa237wIf4Cnhy-15" value="o11" style="shape=partialRectangle;html=1;whiteSpace=wrap;connectable=0;strokeColor=inherit;overflow=hidden;fillColor=none;top=0;left=0;bottom=0;right=0;pointerEvents=1;" vertex="1" parent="iMe6a8kKa237wIf4Cnhy-14">
          <mxGeometry width="72" height="72" as="geometry">
            <mxRectangle width="72" height="72" as="alternateBounds" />
          </mxGeometry>
        </mxCell>
        <mxCell id="iMe6a8kKa237wIf4Cnhy-16" value="o12" style="shape=partialRectangle;html=1;whiteSpace=wrap;connectable=0;strokeColor=inherit;overflow=hidden;fillColor=none;top=0;left=0;bottom=0;right=0;pointerEvents=1;" vertex="1" parent="iMe6a8kKa237wIf4Cnhy-14">
          <mxGeometry x="72" width="72" height="72" as="geometry">
            <mxRectangle width="72" height="72" as="alternateBounds" />
          </mxGeometry>
        </mxCell>
        <mxCell id="iMe6a8kKa237wIf4Cnhy-17" value="o13" style="shape=partialRectangle;html=1;whiteSpace=wrap;connectable=0;strokeColor=inherit;overflow=hidden;fillColor=none;top=0;left=0;bottom=0;right=0;pointerEvents=1;" vertex="1" parent="iMe6a8kKa237wIf4Cnhy-14">
          <mxGeometry x="144" width="72" height="72" as="geometry">
            <mxRectangle width="72" height="72" as="alternateBounds" />
          </mxGeometry>
        </mxCell>
        <mxCell id="iMe6a8kKa237wIf4Cnhy-18" value="o14" style="shape=partialRectangle;html=1;whiteSpace=wrap;connectable=0;strokeColor=inherit;overflow=hidden;fillColor=none;top=0;left=0;bottom=0;right=0;pointerEvents=1;" vertex="1" parent="iMe6a8kKa237wIf4Cnhy-14">
          <mxGeometry x="216" width="72" height="72" as="geometry">
            <mxRectangle width="72" height="72" as="alternateBounds" />
          </mxGeometry>
        </mxCell>
        <mxCell id="iMe6a8kKa237wIf4Cnhy-19" value="o15" style="shape=partialRectangle;html=1;whiteSpace=wrap;connectable=0;strokeColor=inherit;overflow=hidden;fillColor=none;top=0;left=0;bottom=0;right=0;pointerEvents=1;" vertex="1" parent="iMe6a8kKa237wIf4Cnhy-14">
          <mxGeometry x="288" width="72" height="72" as="geometry">
            <mxRectangle width="72" height="72" as="alternateBounds" />
          </mxGeometry>
        </mxCell>
        <mxCell id="iMe6a8kKa237wIf4Cnhy-20" value="" style="shape=tableRow;horizontal=0;startSize=0;swimlaneHead=0;swimlaneBody=0;strokeColor=inherit;top=0;left=0;bottom=0;right=0;collapsible=0;dropTarget=0;fillColor=none;points=[[0,0.5],[1,0.5]];portConstraint=eastwest;" vertex="1" parent="iMe6a8kKa237wIf4Cnhy-1">
          <mxGeometry y="216" width="360" height="72" as="geometry" />
        </mxCell>
        <mxCell id="iMe6a8kKa237wIf4Cnhy-21" value="o16" style="shape=partialRectangle;html=1;whiteSpace=wrap;connectable=0;strokeColor=inherit;overflow=hidden;fillColor=none;top=0;left=0;bottom=0;right=0;pointerEvents=1;" vertex="1" parent="iMe6a8kKa237wIf4Cnhy-20">
          <mxGeometry width="72" height="72" as="geometry">
            <mxRectangle width="72" height="72" as="alternateBounds" />
          </mxGeometry>
        </mxCell>
        <mxCell id="iMe6a8kKa237wIf4Cnhy-22" value="o17" style="shape=partialRectangle;html=1;whiteSpace=wrap;connectable=0;strokeColor=inherit;overflow=hidden;fillColor=none;top=0;left=0;bottom=0;right=0;pointerEvents=1;" vertex="1" parent="iMe6a8kKa237wIf4Cnhy-20">
          <mxGeometry x="72" width="72" height="72" as="geometry">
            <mxRectangle width="72" height="72" as="alternateBounds" />
          </mxGeometry>
        </mxCell>
        <mxCell id="iMe6a8kKa237wIf4Cnhy-23" value="o18" style="shape=partialRectangle;html=1;whiteSpace=wrap;connectable=0;strokeColor=inherit;overflow=hidden;fillColor=none;top=0;left=0;bottom=0;right=0;pointerEvents=1;" vertex="1" parent="iMe6a8kKa237wIf4Cnhy-20">
          <mxGeometry x="144" width="72" height="72" as="geometry">
            <mxRectangle width="72" height="72" as="alternateBounds" />
          </mxGeometry>
        </mxCell>
        <mxCell id="iMe6a8kKa237wIf4Cnhy-24" value="o19" style="shape=partialRectangle;html=1;whiteSpace=wrap;connectable=0;strokeColor=inherit;overflow=hidden;fillColor=none;top=0;left=0;bottom=0;right=0;pointerEvents=1;" vertex="1" parent="iMe6a8kKa237wIf4Cnhy-20">
          <mxGeometry x="216" width="72" height="72" as="geometry">
            <mxRectangle width="72" height="72" as="alternateBounds" />
          </mxGeometry>
        </mxCell>
        <mxCell id="iMe6a8kKa237wIf4Cnhy-25" value="o20" style="shape=partialRectangle;html=1;whiteSpace=wrap;connectable=0;strokeColor=inherit;overflow=hidden;fillColor=none;top=0;left=0;bottom=0;right=0;pointerEvents=1;" vertex="1" parent="iMe6a8kKa237wIf4Cnhy-20">
          <mxGeometry x="288" width="72" height="72" as="geometry">
            <mxRectangle width="72" height="72" as="alternateBounds" />
          </mxGeometry>
        </mxCell>
        <mxCell id="iMe6a8kKa237wIf4Cnhy-26" value="" style="shape=tableRow;horizontal=0;startSize=0;swimlaneHead=0;swimlaneBody=0;strokeColor=inherit;top=0;left=0;bottom=0;right=0;collapsible=0;dropTarget=0;fillColor=none;points=[[0,0.5],[1,0.5]];portConstraint=eastwest;" vertex="1" parent="iMe6a8kKa237wIf4Cnhy-1">
          <mxGeometry y="288" width="360" height="72" as="geometry" />
        </mxCell>
        <mxCell id="iMe6a8kKa237wIf4Cnhy-27" value="o21" style="shape=partialRectangle;html=1;whiteSpace=wrap;connectable=0;strokeColor=inherit;overflow=hidden;fillColor=none;top=0;left=0;bottom=0;right=0;pointerEvents=1;" vertex="1" parent="iMe6a8kKa237wIf4Cnhy-26">
          <mxGeometry width="72" height="72" as="geometry">
            <mxRectangle width="72" height="72" as="alternateBounds" />
          </mxGeometry>
        </mxCell>
        <mxCell id="iMe6a8kKa237wIf4Cnhy-28" value="o22" style="shape=partialRectangle;html=1;whiteSpace=wrap;connectable=0;strokeColor=inherit;overflow=hidden;fillColor=none;top=0;left=0;bottom=0;right=0;pointerEvents=1;" vertex="1" parent="iMe6a8kKa237wIf4Cnhy-26">
          <mxGeometry x="72" width="72" height="72" as="geometry">
            <mxRectangle width="72" height="72" as="alternateBounds" />
          </mxGeometry>
        </mxCell>
        <mxCell id="iMe6a8kKa237wIf4Cnhy-29" value="o23" style="shape=partialRectangle;html=1;whiteSpace=wrap;connectable=0;strokeColor=inherit;overflow=hidden;fillColor=none;top=0;left=0;bottom=0;right=0;pointerEvents=1;" vertex="1" parent="iMe6a8kKa237wIf4Cnhy-26">
          <mxGeometry x="144" width="72" height="72" as="geometry">
            <mxRectangle width="72" height="72" as="alternateBounds" />
          </mxGeometry>
        </mxCell>
        <mxCell id="iMe6a8kKa237wIf4Cnhy-30" value="o24" style="shape=partialRectangle;html=1;whiteSpace=wrap;connectable=0;strokeColor=inherit;overflow=hidden;fillColor=none;top=0;left=0;bottom=0;right=0;pointerEvents=1;" vertex="1" parent="iMe6a8kKa237wIf4Cnhy-26">
          <mxGeometry x="216" width="72" height="72" as="geometry">
            <mxRectangle width="72" height="72" as="alternateBounds" />
          </mxGeometry>
        </mxCell>
        <mxCell id="iMe6a8kKa237wIf4Cnhy-31" value="o25" style="shape=partialRectangle;html=1;whiteSpace=wrap;connectable=0;strokeColor=inherit;overflow=hidden;fillColor=none;top=0;left=0;bottom=0;right=0;pointerEvents=1;" vertex="1" parent="iMe6a8kKa237wIf4Cnhy-26">
          <mxGeometry x="288" width="72" height="72" as="geometry">
            <mxRectangle width="72" height="72" as="alternateBounds" />
          </mxGeometry>
        </mxCell>
      </root>
    </mxGraphModel>
  </diagram>
</mxfile>
